# xmcd
#
# Track frame offsets:
#	150
#	9650
#	25769
#	41986
#	57471
#	77721
#	94247
#	113999
#	136793
#	141501
#	162072
#	175580
#	193766
#	209862
#
# Disc length: 3007 seconds
#
# Revision: 1
# Processed by: cddbd v1.5.2PL0 Copyright (c) Steve Scherf et al.
# Submitted via: audiograbber 1.83.01
#
DISCID=c90bbd0e
DTITLE=Tedashii - Below Paradise
DYEAR=2014
DGENRE=Christian Rap
TTITLE0=Below Paradise
TTITLE1=Perfect (feat. Kam Parker)
TTITLE2=Dark Days, Darker Nights (feat. Britt Nicole)
TTITLE3=Nothing I Can't Do (feat. Trip Lee and Lecrae)
TTITLE4=Catch Me If You Can (feat. Andy Mineo)
TTITLE5=Paradise (feat. Tauren Wells)
TTITLE6=Fire Away (feat. Spzrkt)
TTITLE7=Be With You (feat. Lester "L2" Shaw)
TTITLE8=Back To You (Interlude)
TTITLE9=Angels And Demons (feat. Crowder)
TTITLE10=My God
TTITLE11=Love Never Leaves (feat. Natalie Lauren)
TTITLE12=Complicated (feat. Christon Gray)
TTITLE13=Chase (feat. Tim Halperin)
EXTD=
EXTT0=
EXTT1=
EXTT2=
EXTT3=
EXTT4=
EXTT5=
EXTT6=
EXTT7=
EXTT8=
EXTT9=
EXTT10=
EXTT11=
EXTT12=
EXTT13=
PLAYORDER=
